# xmcd
#
# Track frame offsets: 
#        150
#        26571
#        44813
#        68102
#        86216
#        103921
#        120066
#        136588
#        156386
#
# Disc length: 2246 seconds
#
# Revision: 1
# Processed by: cddbd v1.5.2PL0 Copyright (c) Steve Scherf et al.
# Submitted via: ExactAudioCopy v0.90b4
#
DISCID=7608c409
DTITLE=Maxwell - BLACKsummers'night
DYEAR=2009
DGENRE=R&B
TTITLE0=Bad Habits
TTITLE1=Cold
TTITLE2=Pretty Wings
TTITLE3=Help Somebody
TTITLE4=Stop the World
TTITLE5=Love You
TTITLE6=Fistful of Tears
TTITLE7=Playing Possum
TTITLE8=Phoenix Rise
EXTD=
EXTT0=
EXTT1=
EXTT2=
EXTT3=
EXTT4=
EXTT5=
EXTT6=
EXTT7=
EXTT8=
PLAYORDER=
